# Created by FreeCAD <http://www.freecadweb.org>
v 5.954423 12.020945 2.000000
v 6.000000 11.500000 2.000000
v 6.000000 11.500000 0.000000
v 5.954423 12.020945 0.000000
v 5.819078 12.526060 2.000000
v 5.819078 12.526060 0.000000
v 5.598076 13.000000 2.000000
v 5.598076 13.000000 0.000000
v 5.298133 13.428363 2.000000
v 5.298133 13.428363 0.000000
v 4.928363 13.798134 2.000000
v 4.928363 13.798134 0.000000
v 4.500000 14.098076 2.000000
v 4.500000 14.098076 0.000000
v 4.026061 14.319078 2.000000
v 4.026061 14.319078 0.000000
v 3.520945 14.454423 2.000000
v 3.520945 14.454423 0.000000
v 3.000000 14.500000 2.000000
v 3.000000 14.500000 0.000000
v 2.479055 14.454423 2.000000
v 2.479055 14.454423 0.000000
v 1.973940 14.319078 2.000000
v 1.973940 14.319078 0.000000
v 1.500000 14.098076 2.000000
v 1.500000 14.098076 0.000000
v 1.071637 13.798134 2.000000
v 1.071637 13.798134 0.000000
v 0.701867 13.428363 2.000000
v 0.701867 13.428363 0.000000
v 0.401924 13.000000 2.000000
v 0.401924 13.000000 0.000000
v 0.180922 12.526060 2.000000
v 0.180922 12.526060 0.000000
v 0.045577 12.020945 2.000000
v 0.045577 12.020945 0.000000
v 0.000000 11.500000 2.000000
v 0.000000 11.500000 0.000000
v 0.045577 10.979055 0.000000
v 0.045577 10.979055 2.000000
v 0.180922 10.473940 2.000000
v 0.180922 10.473940 0.000000
v 0.401924 10.000000 0.000000
v 0.401924 10.000000 2.000000
v 0.701867 9.571637 2.000000
v 0.701867 9.571637 0.000000
v 1.071637 9.201866 2.000000
v 1.071637 9.201866 0.000000
v 1.500000 8.901924 0.000000
v 1.500000 8.901924 2.000000
v 1.973940 8.680922 2.000000
v 1.973940 8.680922 0.000000
v 2.479055 8.545577 0.000000
v 2.479055 8.545577 2.000000
v 3.000000 8.500000 2.000000
v 3.000000 8.500000 0.000000
v 3.520945 8.545577 2.000000
v 3.520945 8.545577 0.000000
v 4.026061 8.680922 0.000000
v 4.026061 8.680922 2.000000
v 4.500000 8.901924 2.000000
v 4.500000 8.901924 0.000000
v 4.928363 9.201866 0.000000
v 4.928363 9.201866 2.000000
v 5.298133 9.571637 0.000000
v 5.298133 9.571637 2.000000
v 5.598076 10.000000 2.000000
v 5.598076 10.000000 0.000000
v 5.819078 10.473940 0.000000
v 5.819078 10.473940 2.000000
v 5.954423 10.979055 2.000000
v 5.954423 10.979055 0.000000
v 1.908893 10.131795 2.000000
v 1.631795 10.408893 2.000000
v 2.240704 9.923305 2.000000
v 1.423304 10.740704 2.000000
v 2.610588 9.793877 2.000000
v 1.293876 11.110588 2.000000
v 3.000000 9.750000 2.000000
v 1.250000 11.500000 2.000000
v 3.389412 9.793877 2.000000
v 1.293876 11.889412 2.000000
v 3.759296 9.923305 2.000000
v 1.423304 12.259296 2.000000
v 4.091107 10.131795 2.000000
v 1.631795 12.591107 2.000000
v 4.368205 10.408893 2.000000
v 1.908893 12.868205 2.000000
v 4.576695 10.740704 2.000000
v 2.240704 13.076695 2.000000
v 4.706124 11.110588 2.000000
v 2.610588 13.206123 2.000000
v 4.750000 11.500000 2.000000
v 3.000000 13.250000 2.000000
v 4.706124 11.889412 2.000000
v 3.389412 13.206123 2.000000
v 4.576695 12.259296 2.000000
v 3.759296 13.076695 2.000000
v 4.368205 12.591107 2.000000
v 4.091107 12.868205 2.000000
v 1.908893 10.131795 0.000000
v 1.631795 10.408893 0.000000
v 2.240704 9.923305 0.000000
v 1.423304 10.740704 0.000000
v 2.610588 9.793877 0.000000
v 1.293876 11.110588 0.000000
v 3.000000 9.750000 0.000000
v 1.250000 11.500000 0.000000
v 3.389412 9.793877 0.000000
v 1.293876 11.889412 0.000000
v 3.759296 9.923305 0.000000
v 1.423304 12.259296 0.000000
v 4.091107 10.131795 0.000000
v 1.631795 12.591107 0.000000
v 4.368205 10.408893 0.000000
v 1.908893 12.868205 0.000000
v 4.576695 10.740704 0.000000
v 2.240704 13.076695 0.000000
v 4.706124 11.110588 0.000000
v 2.610588 13.206123 0.000000
v 4.750000 11.500000 0.000000
v 3.000000 13.250000 0.000000
v 4.706124 11.889412 0.000000
v 3.389412 13.206123 0.000000
v 4.576695 12.259296 0.000000
v 3.759296 13.076695 0.000000
v 4.368205 12.591107 0.000000
v 4.091107 12.868205 0.000000
vn 0.996195 0.087156 0.000000
vn 0.996195 0.087156 0.000000
vn 0.965926 0.258819 0.000000
vn 0.965926 0.258819 0.000000
vn 0.906308 0.422619 0.000000
vn 0.906308 0.422619 0.000000
vn 0.819152 0.573576 0.000000
vn 0.819152 0.573576 0.000000
vn 0.707107 0.707106 0.000000
vn 0.707107 0.707106 0.000000
vn 0.573575 0.819153 0.000000
vn 0.573575 0.819153 0.000000
vn 0.422620 0.906307 0.000000
vn 0.422620 0.906307 0.000000
vn 0.258817 0.965926 0.000000
vn 0.258817 0.965926 0.000000
vn 0.087156 0.996195 0.000000
vn 0.087156 0.996195 0.000000
vn -0.087156 0.996195 0.000000
vn -0.087156 0.996195 0.000000
vn -0.258817 0.965926 0.000000
vn -0.258817 0.965926 0.000000
vn -0.422620 0.906307 0.000000
vn -0.422620 0.906307 0.000000
vn -0.573575 0.819153 0.000000
vn -0.573575 0.819153 0.000000
vn -0.707107 0.707106 0.000000
vn -0.707107 0.707106 0.000000
vn -0.819152 0.573576 0.000000
vn -0.819152 0.573576 0.000000
vn -0.906308 0.422618 0.000000
vn -0.906308 0.422618 0.000000
vn -0.965926 0.258819 0.000000
vn -0.965926 0.258819 0.000000
vn -0.996195 0.087156 0.000000
vn -0.996195 0.087156 0.000000
vn -0.996195 -0.087156 -0.000000
vn -0.996195 -0.087156 -0.000000
vn -0.965926 -0.258819 0.000000
vn -0.965926 -0.258819 -0.000000
vn -0.906308 -0.422618 -0.000000
vn -0.906308 -0.422618 -0.000000
vn -0.819152 -0.573576 -0.000000
vn -0.819152 -0.573576 0.000000
vn -0.707107 -0.707106 -0.000000
vn -0.573575 -0.819153 -0.000000
vn -0.707107 -0.707106 0.000000
vn -0.573575 -0.819153 -0.000000
vn -0.422620 -0.906307 -0.000000
vn -0.258817 -0.965926 -0.000000
vn -0.422620 -0.906307 0.000000
vn -0.258817 -0.965926 -0.000000
vn -0.087156 -0.996195 -0.000000
vn -0.087156 -0.996195 0.000000
vn 0.087156 -0.996195 0.000000
vn 0.258817 -0.965926 0.000000
vn 0.087156 -0.996195 0.000000
vn 0.258817 -0.965926 0.000000
vn 0.422620 -0.906307 0.000000
vn 0.573575 -0.819153 0.000000
vn 0.422620 -0.906307 0.000000
vn 0.707107 -0.707106 0.000000
vn 0.573575 -0.819153 0.000000
vn 0.707107 -0.707106 0.000000
vn 0.819152 -0.573576 0.000000
vn 0.819152 -0.573576 0.000000
vn 0.906308 -0.422619 0.000000
vn 0.906308 -0.422619 0.000000
vn 0.965926 -0.258819 0.000000
vn 0.965926 -0.258819 0.000000
vn 0.996195 -0.087156 0.000000
vn 0.996195 -0.087156 0.000000
vn 0.000000 0.000000 1.000000
vn 0.000000 0.000000 1.000000
vn 0.000000 0.000000 1.000000
vn 0.000000 0.000000 1.000000
vn 0.000000 0.000000 1.000000
vn 0.000000 0.000000 1.000000
vn 0.000000 0.000000 1.000000
vn 0.000000 0.000000 1.000000
vn 0.000000 0.000000 1.000000
vn 0.000000 0.000000 1.000000
vn 0.000000 0.000000 1.000000
vn 0.000000 0.000000 1.000000
vn 0.000000 0.000000 1.000000
vn 0.000000 0.000000 1.000000
vn 0.000000 0.000000 1.000000
vn 0.000000 0.000000 1.000000
vn 0.000000 0.000000 1.000000
vn 0.000000 0.000000 1.000000
vn 0.000000 0.000000 1.000000
vn 0.000000 0.000000 1.000000
vn 0.000000 0.000000 1.000000
vn 0.000000 0.000000 1.000000
vn 0.000000 0.000000 1.000000
vn 0.000000 0.000000 1.000000
vn 0.000000 0.000000 1.000000
vn 0.000000 0.000000 1.000000
vn 0.000000 0.000000 1.000000
vn 0.000000 0.000000 1.000000
vn 0.000000 0.000000 1.000000
vn 0.000000 0.000000 1.000000
vn 0.000000 0.000000 1.000000
vn 0.000000 0.000000 1.000000
vn 0.000000 0.000000 1.000000
vn 0.000000 0.000000 1.000000
vn 0.000000 0.000000 1.000000
vn 0.000000 0.000000 1.000000
vn 0.000000 0.000000 1.000000
vn 0.000000 0.000000 1.000000
vn 0.000000 0.000000 1.000000
vn 0.000000 0.000000 1.000000
vn 0.000000 0.000000 1.000000
vn 0.000000 0.000000 1.000000
vn 0.000000 0.000000 1.000000
vn 0.000000 0.000000 1.000000
vn 0.000000 0.000000 1.000000
vn 0.000000 0.000000 1.000000
vn 0.000000 0.000000 1.000000
vn 0.000000 0.000000 1.000000
vn 0.000000 0.000000 1.000000
vn 0.000000 0.000000 1.000000
vn 0.000000 0.000000 1.000000
vn 0.000000 0.000000 1.000000
vn 0.000000 0.000000 1.000000
vn 0.000000 0.000000 1.000000
vn 0.000000 0.000000 1.000000
vn 0.000000 0.000000 1.000000
vn 0.000000 0.000000 1.000000
vn 0.000000 0.000000 1.000000
vn 0.000000 0.000000 1.000000
vn 0.000000 0.000000 1.000000
vn 0.000000 0.000000 1.000000
vn 0.000000 0.000000 1.000000
vn 0.000000 0.000000 1.000000
vn 0.000000 0.000000 1.000000
vn 0.000000 0.000000 -1.000000
vn 0.000000 0.000000 -1.000000
vn 0.000000 0.000000 -1.000000
vn 0.000000 0.000000 -1.000000
vn 0.000000 0.000000 -1.000000
vn 0.000000 -0.000000 -1.000000
vn 0.000000 0.000000 -1.000000
vn 0.000000 0.000000 -1.000000
vn 0.000000 0.000000 -1.000000
vn 0.000000 -0.000000 -1.000000
vn 0.000000 0.000000 -1.000000
vn 0.000000 0.000000 -1.000000
vn 0.000000 -0.000000 -1.000000
vn 0.000000 0.000000 -1.000000
vn 0.000000 0.000000 -1.000000
vn 0.000000 -0.000000 -1.000000
vn 0.000000 0.000000 -1.000000
vn 0.000000 0.000000 -1.000000
vn 0.000000 0.000000 -1.000000
vn 0.000000 0.000000 -1.000000
vn 0.000000 0.000000 -1.000000
vn 0.000000 -0.000000 -1.000000
vn 0.000000 0.000000 -1.000000
vn 0.000000 0.000000 -1.000000
vn 0.000000 0.000000 -1.000000
vn 0.000000 -0.000000 -1.000000
vn 0.000000 0.000000 -1.000000
vn 0.000000 0.000000 -1.000000
vn 0.000000 -0.000000 -1.000000
vn 0.000000 0.000000 -1.000000
vn 0.000000 -0.000000 -1.000000
vn 0.000000 0.000000 -1.000000
vn 0.000000 0.000000 -1.000000
vn 0.000000 0.000000 -1.000000
vn 0.000000 0.000000 -1.000000
vn 0.000000 -0.000000 -1.000000
vn 0.000000 0.000000 -1.000000
vn 0.000000 0.000000 -1.000000
vn 0.000000 0.000000 -1.000000
vn 0.000000 -0.000000 -1.000000
vn 0.000000 0.000000 -1.000000
vn 0.000000 0.000000 -1.000000
vn 0.000000 0.000000 -1.000000
vn 0.000000 -0.000000 -1.000000
vn 0.000000 0.000000 -1.000000
vn 0.000000 0.000000 -1.000000
vn 0.000000 0.000000 -1.000000
vn 0.000000 0.000000 -1.000000
vn 0.000000 0.000000 -1.000000
vn 0.000000 0.000000 -1.000000
vn 0.000000 0.000000 -1.000000
vn 0.000000 0.000000 -1.000000
vn 0.000000 0.000000 -1.000000
vn 0.000000 0.000000 -1.000000
vn 0.000000 0.000000 -1.000000
vn 0.000000 -0.000000 -1.000000
vn 0.000000 0.000000 -1.000000
vn 0.000000 0.000000 -1.000000
vn 0.000000 0.000000 -1.000000
vn 0.000000 -0.000000 -1.000000
vn 0.000000 0.000000 -1.000000
vn 0.000000 0.000000 -1.000000
vn 0.000000 0.000000 -1.000000
vn 0.000000 -0.000000 -1.000000
vn -0.993712 -0.111964 -0.000000
vn -0.993712 -0.111964 0.000000
vn -0.943883 -0.330280 0.000000
vn -0.943883 -0.330280 -0.000000
vn -0.846725 -0.532032 0.000000
vn -0.846725 -0.532032 -0.000000
vn -0.707107 -0.707107 0.000000
vn -0.707107 -0.707107 -0.000000
vn -0.532032 -0.846725 0.000000
vn -0.532032 -0.846725 -0.000000
vn -0.330278 -0.943884 0.000000
vn -0.330278 -0.943884 -0.000000
vn -0.111966 -0.993712 0.000000
vn -0.111966 -0.993712 -0.000000
vn 0.111966 -0.993712 0.000000
vn 0.111966 -0.993712 0.000000
vn 0.330278 -0.943884 0.000000
vn 0.330278 -0.943884 0.000000
vn 0.532032 -0.846724 0.000000
vn 0.532032 -0.846724 0.000000
vn 0.707106 -0.707107 0.000000
vn 0.707106 -0.707107 0.000000
vn 0.846724 -0.532032 0.000000
vn 0.846724 -0.532032 0.000000
vn 0.943883 -0.330279 0.000000
vn 0.943883 -0.330279 0.000000
vn 0.993712 -0.111964 0.000000
vn 0.993712 -0.111964 0.000000
vn 0.993712 0.111964 0.000000
vn 0.993712 0.111964 0.000000
vn 0.943883 0.330279 0.000000
vn 0.943883 0.330279 0.000000
vn 0.846724 0.532032 0.000000
vn 0.846724 0.532032 0.000000
vn 0.707106 0.707107 0.000000
vn 0.707106 0.707107 0.000000
vn 0.532032 0.846724 0.000000
vn 0.532032 0.846724 0.000000
vn 0.330278 0.943884 0.000000
vn 0.330278 0.943884 0.000000
vn 0.111966 0.993712 -0.000000
vn 0.111966 0.993712 0.000000
vn -0.111966 0.993712 0.000000
vn -0.111966 0.993712 0.000000
vn -0.330278 0.943884 0.000000
vn -0.330278 0.943884 0.000000
vn -0.532032 0.846725 0.000000
vn -0.532032 0.846725 0.000000
vn -0.707107 0.707107 0.000000
vn -0.707107 0.707107 0.000000
vn -0.846725 0.532032 0.000000
vn -0.846725 0.532032 0.000000
vn -0.943883 0.330280 0.000000
vn -0.943883 0.330280 0.000000
vn -0.993712 0.111964 0.000000
vn -0.993712 0.111964 0.000000
f 1//1 2//1 3//1
f 1//2 3//2 4//2
f 5//3 4//3 6//3
f 5//4 1//4 4//4
f 7//5 6//5 8//5
f 7//6 5//6 6//6
f 9//7 8//7 10//7
f 9//8 7//8 8//8
f 11//9 10//9 12//9
f 11//10 9//10 10//10
f 13//11 11//11 12//11
f 13//12 12//12 14//12
f 15//13 13//13 14//13
f 15//14 14//14 16//14
f 17//15 15//15 16//15
f 17//16 16//16 18//16
f 19//17 17//17 18//17
f 19//18 18//18 20//18
f 21//19 19//19 20//19
f 21//20 20//20 22//20
f 23//21 21//21 22//21
f 23//22 22//22 24//22
f 25//23 23//23 24//23
f 25//24 24//24 26//24
f 27//25 25//25 26//25
f 27//26 26//26 28//26
f 29//27 27//27 28//27
f 29//28 28//28 30//28
f 31//29 29//29 30//29
f 31//30 30//30 32//30
f 33//31 31//31 32//31
f 33//32 32//32 34//32
f 35//33 33//33 34//33
f 35//34 34//34 36//34
f 37//35 35//35 36//35
f 37//36 36//36 38//36
f 37//37 38//37 39//37
f 40//38 37//38 39//38
f 41//39 40//39 39//39
f 41//40 39//40 42//40
f 41//41 42//41 43//41
f 44//42 41//42 43//42
f 45//43 43//43 46//43
f 45//44 44//44 43//44
f 47//45 46//45 48//45
f 47//46 48//46 49//46
f 47//47 45//47 46//47
f 50//48 47//48 49//48
f 51//49 49//49 52//49
f 51//50 52//50 53//50
f 51//51 50//51 49//51
f 54//52 51//52 53//52
f 55//53 53//53 56//53
f 55//54 54//54 53//54
f 57//55 56//55 58//55
f 57//56 58//56 59//56
f 57//57 55//57 56//57
f 60//58 57//58 59//58
f 61//59 59//59 62//59
f 61//60 62//60 63//60
f 61//61 60//61 59//61
f 64//62 63//62 65//62
f 64//63 61//63 63//63
f 66//64 64//64 65//64
f 67//65 66//65 65//65
f 67//66 65//66 68//66
f 67//67 68//67 69//67
f 70//68 67//68 69//68
f 71//69 70//69 69//69
f 71//70 69//70 72//70
f 2//71 71//71 72//71
f 2//72 72//72 3//72
f 73//73 47//73 50//73
f 74//74 44//74 45//74
f 74//75 45//75 47//75
f 74//76 47//76 73//76
f 75//77 50//77 51//77
f 75//78 73//78 50//78
f 76//79 41//79 44//79
f 76//80 44//80 74//80
f 77//81 51//81 54//81
f 77//82 75//82 51//82
f 78//83 40//83 41//83
f 78//84 41//84 76//84
f 79//85 77//85 54//85
f 79//86 54//86 55//86
f 79//87 55//87 57//87
f 80//88 35//88 37//88
f 80//89 37//89 40//89
f 80//90 40//90 78//90
f 81//91 79//91 57//91
f 81//92 57//92 60//92
f 82//93 35//93 80//93
f 82//94 33//94 35//94
f 83//95 81//95 60//95
f 83//96 60//96 61//96
f 84//97 33//97 82//97
f 84//98 31//98 33//98
f 85//99 83//99 61//99
f 85//100 61//100 64//100
f 86//101 29//101 31//101
f 86//102 31//102 84//102
f 66//103 87//103 85//103
f 66//104 85//104 64//104
f 27//105 29//105 86//105
f 27//106 86//106 88//106
f 67//107 87//107 66//107
f 67//108 89//108 87//108
f 25//109 27//109 88//109
f 25//110 88//110 90//110
f 70//111 89//111 67//111
f 70//112 91//112 89//112
f 23//113 90//113 92//113
f 23//114 25//114 90//114
f 71//115 91//115 70//115
f 71//116 93//116 91//116
f 21//117 92//117 94//117
f 21//118 23//118 92//118
f 2//119 93//119 71//119
f 19//120 21//120 94//120
f 1//121 95//121 93//121
f 1//122 93//122 2//122
f 17//123 94//123 96//123
f 17//124 19//124 94//124
f 5//125 97//125 95//125
f 5//126 95//126 1//126
f 15//127 96//127 98//127
f 15//128 17//128 96//128
f 7//129 99//129 97//129
f 7//130 97//130 5//130
f 13//131 98//131 100//131
f 13//132 15//132 98//132
f 9//133 99//133 7//133
f 11//134 100//134 99//134
f 11//135 99//135 9//135
f 11//136 13//136 100//136
f 48//137 101//137 49//137
f 43//138 102//138 46//138
f 46//139 102//139 48//139
f 48//140 102//140 101//140
f 49//141 103//141 52//141
f 101//142 103//142 49//142
f 42//143 104//143 43//143
f 43//144 104//144 102//144
f 52//145 105//145 53//145
f 103//146 105//146 52//146
f 39//147 106//147 42//147
f 42//148 106//148 104//148
f 105//149 107//149 53//149
f 53//150 107//150 56//150
f 56//151 107//151 58//151
f 36//152 108//152 38//152
f 38//153 108//153 39//153
f 39//154 108//154 106//154
f 107//155 109//155 58//155
f 58//156 109//156 59//156
f 36//157 110//157 108//157
f 34//158 110//158 36//158
f 109//159 111//159 59//159
f 59//160 111//160 62//160
f 34//161 112//161 110//161
f 32//162 112//162 34//162
f 111//163 113//163 62//163
f 62//164 113//164 63//164
f 30//165 114//165 32//165
f 32//166 114//166 112//166
f 115//167 65//167 113//167
f 113//168 65//168 63//168
f 30//169 28//169 114//169
f 114//170 28//170 116//170
f 115//171 68//171 65//171
f 117//172 68//172 115//172
f 28//173 26//173 116//173
f 116//174 26//174 118//174
f 117//175 69//175 68//175
f 119//176 69//176 117//176
f 118//177 24//177 120//177
f 26//178 24//178 118//178
f 119//179 72//179 69//179
f 121//180 72//180 119//180
f 120//181 22//181 122//181
f 24//182 22//182 120//182
f 121//183 3//183 72//183
f 22//184 20//184 122//184
f 123//185 4//185 121//185
f 121//186 4//186 3//186
f 122//187 18//187 124//187
f 20//188 18//188 122//188
f 125//189 6//189 123//189
f 123//190 6//190 4//190
f 124//191 16//191 126//191
f 18//192 16//192 124//192
f 127//193 8//193 125//193
f 125//194 8//194 6//194
f 126//195 14//195 128//195
f 16//196 14//196 126//196
f 127//197 10//197 8//197
f 128//198 12//198 127//198
f 127//199 12//199 10//199
f 14//200 12//200 128//200
f 93//201 95//201 121//201
f 121//202 95//202 123//202
f 123//203 97//203 125//203
f 95//204 97//204 123//204
f 125//205 99//205 127//205
f 97//206 99//206 125//206
f 127//207 100//207 128//207
f 99//208 100//208 127//208
f 128//209 98//209 126//209
f 100//210 98//210 128//210
f 126//211 96//211 124//211
f 98//212 96//212 126//212
f 124//213 94//213 122//213
f 96//214 94//214 124//214
f 122//215 92//215 120//215
f 94//216 92//216 122//216
f 120//217 90//217 118//217
f 92//218 90//218 120//218
f 90//219 88//219 118//219
f 118//220 88//220 116//220
f 88//221 86//221 116//221
f 116//222 86//222 114//222
f 114//223 86//223 112//223
f 86//224 84//224 112//224
f 84//225 82//225 112//225
f 112//226 82//226 110//226
f 110//227 82//227 108//227
f 82//228 80//228 108//228
f 80//229 78//229 108//229
f 108//230 78//230 106//230
f 78//231 76//231 106//231
f 106//232 76//232 104//232
f 76//233 74//233 104//233
f 104//234 74//234 102//234
f 74//235 73//235 102//235
f 102//236 73//236 101//236
f 73//237 75//237 101//237
f 101//238 75//238 103//238
f 75//239 77//239 103//239
f 103//240 77//240 105//240
f 105//241 77//241 107//241
f 77//242 79//242 107//242
f 79//243 81//243 107//243
f 107//244 81//244 109//244
f 109//245 81//245 111//245
f 81//246 83//246 111//246
f 111//247 85//247 113//247
f 83//248 85//248 111//248
f 113//249 87//249 115//249
f 85//250 87//250 113//250
f 115//251 89//251 117//251
f 87//252 89//252 115//252
f 117//253 91//253 119//253
f 89//254 91//254 117//254
f 119//255 93//255 121//255
f 91//256 93//256 119//256
